<?xml version="1.0" encoding="UTF-8" standalone="no"?>
<!-- Created with Inkscape (http://www.inkscape.org/) -->

<svg
   version="1.1"
   id="svg1"
   width="232.42203"
   height="142.64471"
   viewBox="0 0 232.42203 142.64471"
   sodipodi:docname="test.svg"
   inkscape:version="1.3.2 (091e20e, 2023-11-25)"
   xmlns:inkscape="http://www.inkscape.org/namespaces/inkscape"
   xmlns:sodipodi="http://sodipodi.sourceforge.net/DTD/sodipodi-0.dtd"
   xmlns="http://www.w3.org/2000/svg"
   xmlns:svg="http://www.w3.org/2000/svg">
  <defs
     id="defs1" />
  <sodipodi:namedview
     id="namedview1"
     pagecolor="#ffffff"
     bordercolor="#000000"
     borderopacity="0.25"
     inkscape:showpageshadow="2"
     inkscape:pageopacity="0.0"
     inkscape:pagecheckerboard="0"
     inkscape:deskcolor="#d1d1d1"
     showgrid="false"
     inkscape:zoom="0.85643888"
     inkscape:cx="-15.762946"
     inkscape:cy="155.29421"
     inkscape:window-width="1440"
     inkscape:window-height="847"
     inkscape:window-x="0"
     inkscape:window-y="25"
     inkscape:window-maximized="1"
     inkscape:current-layer="svg1" />
  <path
     style="fill:#FFFFFF"
     d="m 57.57391,141.94582 c -2.94148,-0.52669 -8.71862,-2.30722 -12.83809,-3.95674 -4.11948,-1.64952 -10.03781,-4.66628 -13.15186,-6.70392 -3.11404,-2.03764 -8.42918,-6.49309 -11.81141,-9.901 -3.38223,-3.40791 -8.03852,-9.37587 -10.3472997,-13.26213 -2.30879,-3.88626 -5.37448,-10.56605 -6.81265,-14.84398 C 0.28703034,86.36048 -0.00199966,83.95118 1.0340419e-5,71.5 0.00201034,58.9674 0.28363034,56.66149 2.6865803,49.5 4.1629503,45.1 7.0699003,38.57507 9.1464703,35.00016 11.22304,31.42525 16.52206,24.87918 20.92206,20.45335 c 6.53751,-6.57589 9.7367,-8.90181 17.5,-12.72311 5.225,-2.57187 12.425,-5.35666 16,-6.18841 3.575,-0.83175 11.04052,-1.51892 16.59004,-1.52705 6.74647,-0.01 12.59656,0.62628 17.65411,1.91978 4.16024,1.06402 9.80191,3.06857 12.53705,4.45457 4.97297,2.51999 4.97297,2.51999 11.93644,-0.40575 3.8299,-1.60915 9.60476,-3.6137 12.83301,-4.45456 C 129.45787,0.62105 136.16046,0 142.47219,0 c 7.30632,0 13.04074,0.61658 18.34039,1.972 4.24074,1.0846 10.78267,3.58641 14.53762,5.55958 3.75495,1.97317 9.75006,5.99851 13.32246,8.94519 3.5724,2.94668 7.52361,6.80176 8.78046,8.56685 2.28518,3.20924 2.28518,3.20924 -0.12294,5.11126 -1.32447,1.04611 -3.17078,2.34176 -4.10293,2.87921 -1.34903,0.77783 -2.24195,0.25985 -4.37665,-2.53889 -1.47502,-1.93385 -5.32786,-5.50513 -8.56188,-7.93618 -3.23401,-2.43106 -8.31691,-5.57293 -11.29533,-6.98195 -2.97841,-1.40901 -8.0379,-3.25769 -11.24331,-4.10816 -3.30762,-0.87759 -9.93642,-1.54632 -15.32802,-1.54632 -5.225,0 -11.975,0.65903 -15,1.46451 -3.025,0.80548 -6.81611,1.96665 -8.42469,2.58037 -2.92469,1.11586 -2.92469,1.11586 2.27818,6.38418 5.20288,5.26832 5.20288,5.26832 1.39409,8.32915 -3.80879,3.06083 -3.80879,3.06083 -9.78966,-2.56078 -3.28948,-3.09188 -9.12571,-7.27041 -12.9694,-9.28563 C 96.06689,14.81918 90.02255,12.42217 86.47871,11.5077 82.72106,10.53807 76.2296,9.85284 70.90486,9.86376 c -5.02177,0.0103 -11.34726,0.54645 -14.05665,1.19143 -2.70938,0.64499 -8.71643,2.97194 -13.349,5.171 -6.6343,3.14928 -10.0494,5.62484 -16.08277,11.65822 -5.59733,5.59733 -8.64466,9.67349 -11.31696,15.13776 -2.01136,4.11281 -4.39001,10.39721 -5.28589,13.96533 -1.2053997,4.8009 -1.4987697,9.22051 -1.1284497,17 0.3182897,6.68655 1.2659597,12.90438 2.6039097,17.08463 1.15692,3.61467 3.87271,9.30945 6.03508,12.65506 2.16237,3.34561 5.56783,7.89405 7.56769,10.10766 1.99986,2.2136 6.65994,6.09083 10.35574,8.61606 3.6958,2.52523 10.08448,5.77426 14.19707,7.22007 5.50039,1.93371 10.12144,2.74761 17.47743,3.07828 6.85681,0.30823 12.0294,-0.0261 16.4565,-1.06371 6.45651,-1.51322 6.45651,-1.51322 10.71831,1.54738 2.344,1.68333 4.03206,3.43234 3.75125,3.8867 -0.28081,0.45436 -3.52905,1.77014 -7.21831,2.92396 -4.54464,1.42133 -10.25503,2.22071 -17.70775,2.47884 -6.05,0.20955 -13.40667,-0.0499 -16.34815,-0.57661 z m 72.84815,0.43067 c -1.375,-0.26252 -5.425,-1.39333 -9,-2.51293 -3.575,-1.11959 -9.56974,-3.64459 -13.32165,-5.61111 -3.7519,-1.96651 -10.1542,-6.68773 -14.22733,-10.49158 -4.202,-3.9242 -9.40374,-10.12184 -12.0244,-14.32652 -2.5403,-4.07573 -5.69767,-10.51296 -7.0164,-14.30496 -1.31873,-3.792 -2.89385,-10.43488 -3.50028,-14.76197 -0.60642,-4.32708 -0.80778,-10.89696 -0.44745,-14.59974 0.36032,-3.70278 1.55589,-10.00278 2.65682,-14 C 74.6423,47.77046 77.13744,41.575 79.08612,38 c 1.94869,-3.575 5.18396,-8.49785 7.1895,-10.93966 2.00554,-2.44181 4.12748,-5.08001 4.71541,-5.86267 0.90793,-1.20864 1.73653,-1.08622 5.5,0.81257 2.43707,1.22958 4.57636,2.36312 4.75399,2.51897 0.17763,0.15586 -1.62237,2.31657 -4,4.80159 -2.37763,2.48502 -5.81723,6.98897 -7.64355,10.00878 -1.82633,3.01982 -4.40463,8.69469 -5.72955,12.61084 -1.32493,3.91614 -2.70088,10.62065 -3.05767,14.8989 -0.46489,5.57445 -0.16832,10.1691 1.04661,16.21466 0.93243,4.63981 3.27038,11.72622 5.19545,15.74758 2.51325,5.25004 5.71052,9.59436 11.33967,15.4079 7.83954,8.09634 7.83954,8.09634 12.06847,4.74697 2.32591,-1.84216 6.21001,-5.85071 8.63133,-8.9079 2.42132,-3.05719 5.69881,-8.25853 7.28331,-11.55853 1.5845,-3.3 3.59237,-8.76496 4.46194,-12.14434 0.86956,-3.37939 1.58103,-7.09189 1.58103,-8.25 C 132.42206,76.02567 132.141,76 109.36727,76 c -23.05479,0 -23.05479,0 -22.75,-4.75 0.30479,-4.75 0.30479,-4.75 28.05479,-5.01582 27.75,-0.26582 27.75,-0.26582 27.73263,7 -0.01,3.9962 -0.64474,10.22542 -1.41155,13.84271 -0.7668,3.61729 -2.77542,9.62314 -4.4636,13.34633 -1.68817,3.7232 -5.06181,9.56154 -7.49695,12.97409 -2.43515,3.41256 -6.30874,7.90419 -8.60797,9.98141 -2.29923,2.07722 -4.0279,3.92595 -3.84149,4.10829 0.18641,0.18234 3.26393,1.32867 6.83893,2.5474 3.97243,1.35422 10.04615,2.41197 15.61944,2.72016 6.51687,0.36037 11.29811,0.0196 16.75358,-1.19415 4.19877,-0.93414 10.81867,-3.29159 14.71087,-5.23878 3.93793,-1.97006 9.92516,-6.20491 13.49879,-9.54787 6.42207,-6.00752 6.42207,-6.00752 9.91969,-3.33976 1.9237,1.46728 3.49763,3.01526 3.49763,3.43997 0,0.42471 -2.3625,3.13273 -5.25,6.01781 -2.8875,2.88508 -8.4,7.21001 -12.25,9.61097 -3.85,2.40095 -10.6,5.58183 -15,7.06861 -6.59565,2.22871 -10.10652,2.75409 -20,2.99283 -6.6,0.15927 -13.125,0.0748 -14.5,-0.18771 z m 69.93934,-31.94958 c -0.71805,-0.8652 -3.12702,-2.50233 -5.35327,-3.63808 -2.22624,-1.13575 -7.18671,-3.13263 -11.02326,-4.43753 -3.83654,-1.30489 -8.23267,-3.57694 -9.76917,-5.04901 -1.5365,-1.47206 -2.79364,-3.62728 -2.79364,-4.78938 0,-1.1621 0.54,-2.65291 1.2,-3.31291 0.66,-0.66 2.92793,-1.2 5.03984,-1.2 2.11191,0 5.5461,0.87047 7.63153,1.93438 2.08543,1.06391 6.30091,4.64463 9.36772,7.95715 5.57603,6.02278 5.57603,6.02278 4.56431,2.3586 -0.55646,-2.0153 -2.02998,-5.96662 -3.27451,-8.78072 -1.59237,-3.60064 -3.11696,-5.46305 -5.14583,-6.28611 -1.58569,-0.64326 -7.34815,-2.07842 -12.80549,-3.18926 -6.83972,-1.39222 -10.95383,-2.80638 -13.24223,-4.55184 -1.8259,-1.39267 -3.59855,-3.64274 -3.93924,-5.00015 -0.35021,-1.39533 -0.083,-3.11433 0.61468,-3.95504 C 162.20377,67.55809 164.4258,67 167.35333,67 c 3.56309,0 6.05052,0.82144 10.37756,3.42704 3.13014,1.88488 5.69117,3.07838 5.69117,2.65223 0,-0.42616 -2.61671,-3.20583 -5.8149,-6.17705 -3.19819,-2.97122 -7.43073,-6.62502 -9.40562,-8.11955 -2.08772,-1.5799 -4.88598,-5.30935 -6.68511,-8.90972 -2.01099,-4.02437 -3.09437,-7.68918 -3.09437,-10.46757 0,-2.35135 0.43886,-5.42948 0.97525,-6.84028 C 160.0655,30.80761 161.11867,30 162.74232,30 c 1.30337,0 3.05669,0.7875 3.89627,1.75 0.83958,0.9625 2.24974,4 3.13368,6.75 0.88395,2.75 2.28925,8.28 3.12291,12.28888 0.83365,4.00889 2.15794,8.50889 2.94285,10 0.78492,1.49112 3.71242,4.9442 6.50557,7.67353 2.79315,2.72932 5.07359,4.52932 5.06763,4 -0.006,-0.52933 -0.68095,-3.17143 -1.5,-5.87134 -0.81904,-2.69991 -1.48917,-7.46767 -1.48917,-10.59501 0,-4.23859 0.46554,-6.10739 1.82874,-7.34107 C 187.25661,47.74474 188.79895,47 189.67822,47 c 0.87927,0 2.50023,1.14613 3.60212,2.54696 1.10189,1.40083 2.30567,3.92301 2.67506,5.60484 0.36999,1.68454 -0.14279,7.95446 -1.14176,13.96061 -1.81337,10.90274 -1.81337,10.90274 1.44631,17.51304 1.79283,3.63567 3.4803,6.38969 3.74995,6.12005 0.26964,-0.26964 -0.19577,-2.46019 -1.03424,-4.86788 -0.83847,-2.40769 -1.53104,-5.69219 -1.53905,-7.29888 -0.008,-1.60669 0.70273,-3.71384 1.5794,-4.68256 0.87668,-0.96872 2.22179,-1.52038 2.98915,-1.22592 0.76735,0.29446 1.94767,2.40162 2.62292,4.68256 1.22773,4.14718 1.22773,4.14718 1.58686,0.72758 0.19753,-1.88079 -0.0936,-5.25579 -0.64689,-7.5 -0.55331,-2.24422 -0.7652,-5.29097 -0.47087,-6.77056 0.29434,-1.47959 1.35041,-3.42796 2.34683,-4.32971 1.42913,-1.29334 2.24906,-1.40546 3.88305,-0.53097 1.13926,0.60971 2.35464,2.23714 2.70083,3.6165 0.3462,1.37935 0.38303,3.72887 0.0818,5.22113 -0.30118,1.49227 -0.86176,3.61321 -1.24573,4.71321 -0.38396,1.1 1.76104,-0.52099 4.76667,-3.60221 3.28641,-3.36905 6.62184,-5.82339 8.36744,-6.15708 1.59647,-0.30518 3.69495,-0.13086 4.66331,0.38739 0.96835,0.51825 1.76064,1.81606 1.76064,2.88403 0,1.06797 -1.03886,2.62245 -2.30857,3.4544 -1.26972,0.83195 -4.68108,1.96257 -7.5808,2.51249 -2.89972,0.54992 -6.58587,1.93525 -8.19143,3.07851 -1.60556,1.14326 -2.9192,2.28885 -2.9192,2.54575 0,0.2569 0.87041,0.001 1.93426,-0.5681 C 214.42012,78.46583 217.25911,78 219.66515,78 c 2.40603,0 5.24812,0.64864 6.31574,1.44143 1.56341,1.16095 1.72204,1.79335 0.8152,3.25 -0.95565,1.53506 -2.53678,1.80857 -10.45505,1.80857 -9.32912,0 -9.32912,0 -11.56973,3.97101 -1.23234,2.18405 -2.09082,4.1208 -1.90773,4.30388 0.18308,0.18309 1.84613,-0.58968 3.69566,-1.71726 1.84953,-1.12759 4.8394,-2.05184 6.64416,-2.05389 2.03228,-0.002 3.50594,0.58144 3.87128,1.53351 0.32445,0.84548 -0.17279,2.38001 -1.10498,3.41006 -0.93218,1.03005 -2.89926,2.16322 -4.37128,2.51816 -1.47202,0.35493 -4.39406,1.09587 -6.49343,1.64653 -3.4472,0.90418 -3.7654,1.26214 -3.2842,3.69459 0.29306,1.48138 0.8233,4.38091 1.17832,6.44341 0.38563,2.24031 0.2474,3.75 -0.34336,3.75 -0.54386,0 -1.57634,-0.70789 -2.29439,-1.57309 z"
     id="path4" />
</svg>
